 <svg  version="1.0" xmlns="http://www.w3.org/2000/svg"  width="225.000000pt" height="225.000000pt" viewBox="0 0 225.000000 225.000000"  preserveAspectRatio="xMidYMid meet">  <g transform="translate(0.000000,225.000000) scale(0.100000,-0.100000)" fill="#ffffff" stroke="none"> <path d="M1010 2244 c-172 -25 -269 -53 -390 -114 -311 -157 -527 -442 -601 -795 -17 -77 -17 -340 0 -423 54 -277 224 -541 451 -701 234 -165 506 -235 790 -201 478 55 877 426 971 902 17 83 17 346 0 423 -103 486 -485 846 -961 905 -80 9 -206 11 -260 4z m225 -14 c257 -29 469 -128 653 -304 204 -196 310 -413 342 -701 25 -221 -33 -472 -157 -678 -59 -98 -192 -242 -294 -317 -212 -157 -500 -238 -754 -210 -270 29 -499 136 -684 321 -499 500 -414 1320 178 1713 134 89 318 156 484 175 103 12 131 12 232 1z"/> <path d="M1054 2122 c7 -73 -3 -97 -40 -90 -24 4 -32 24 -39 91 -5 39 -11 57 -21 57 -11 0 -12 -12 -8 -62 10 -98 44 -133 104 -108 37 15 41 28 34 111 -5 51 -11 69 -22 69 -12 0 -13 -12 -8 -68z"/> <path d="M1136 2138 c-10 -90 -8 -128 9 -128 12 0 15 14 15 63 1 58 2 61 16 42 9 -11 27 -41 40 -67 32 -62 54 -64 54 -4 0 24 3 64 6 90 6 38 4 46 -10 46 -13 0 -16 -11 -16 -60 0 -33 -4 -60 -8 -60 -4 0 -22 29 -40 65 -39 80 -57 84 -66 13z"/> <path d="M1330 2112 c-6 -31 -15 -70 -21 -86 -10 -32 -7 -41 14 -33 7 3 19 34 25 71 7 36 15 72 18 79 3 8 -2 17 -10 20 -11 5 -17 -7 -26 -51z"/> <path d="M794 2136 c-11 -8 -26 -33 -34 -56 -18 -54 -26 -57 -40 -15 -6 19 -18 35 -26 35 -19 0 -19 -2 18 -92 19 -45 38 -78 46 -78 10 0 12 6 7 18 -28 66 -12 83 46 46 30 -18 47 -23 60 -17 16 7 11 13 -36 38 -30 16 -55 34 -55 40 0 5 9 29 20 53 10 23 18 42 17 42 -2 0 -12 -6 -23 -14z"/> <path d="M1410 2057 c0 -117 10 -124 71 -54 79 91 81 94 64 101 -9 3 -29 -14 -57 -50 l-43 -55 -5 72 c-3 45 -10 74 -17 77 -10 3 -13 -20 -13 -91z"/> <path d="M1574 2032 c-15 -26 -35 -61 -45 -78 l-19 -31 53 -29 c68 -38 67 -38 67 -22 0 8 -18 24 -40 37 -36 20 -38 24 -28 46 11 25 14 25 62 -8 23 -16 30 -17 37 -6 6 10 -2 19 -29 33 -48 24 -45 21 -32 45 l11 21 43 -25 c32 -19 45 -22 49 -13 3 8 -17 26 -49 45 l-53 31 -27 -46z"/> <path d="M606 2052 c-2 -4 14 -42 37 -85 29 -53 46 -74 55 -68 9 5 1 27 -30 84 -42 75 -52 85 -62 69z"/> <path d="M475 1965 c-39 -38 -30 -98 19 -137 32 -26 73 -22 104 9 15 15 30 28 34 28 20 0 17 18 -9 49 -15 20 -30 36 -33 36 -15 -1 -60 -52 -55 -61 5 -7 13 -5 25 6 20 18 40 13 40 -9 0 -19 -33 -46 -57 -46 -27 0 -63 41 -63 72 0 34 23 52 59 45 34 -7 45 1 30 20 -18 21 -67 16 -94 -12z"/> <path d="M1698 1910 c-35 -42 -54 -71 -47 -76 6 -3 23 6 38 20 l27 26 23 -24 c22 -23 22 -25 5 -51 -15 -23 -15 -28 -2 -41 14 -14 17 -11 29 30 9 32 19 46 33 48 12 2 25 15 30 31 9 24 6 31 -29 67 -22 22 -42 40 -45 39 -3 0 -31 -31 -62 -69z m109 -34 c-8 -21 -26 -20 -57 3 -24 19 -24 20 -5 41 l19 21 24 -25 c15 -15 22 -31 19 -40z"/> <path d="M960 1955 c-310 -62 -563 -299 -652 -611 -18 -65 -22 -104 -22 -214 0 -161 15 -233 80 -367 107 -224 307 -390 549 -455 116 -31 309 -31 420 1 327 92 561 345 621 671 93 515 -313 994 -839 989 -51 0 -121 -7 -157 -14z m370 -26 c275 -69 502 -286 590 -564 34 -106 39 -310 11 -427 -77 -324 -340 -572 -665 -629 -115 -20 -283 -7 -396 30 -274 89 -483 314 -550 594 -27 113 -27 285 0 393 88 343 370 586 730 628 62 7 203 -6 280 -25z"/> <path d="M909 1864 c-18 -19 -71 -61 -116 -91 -46 -31 -81 -59 -78 -61 9 -9 118 64 181 122 53 48 69 57 89 52 27 -7 48 -37 39 -58 -3 -7 -33 -35 -66 -61 -33 -27 -81 -76 -106 -109 -42 -54 -47 -58 -50 -37 -5 32 -30 59 -70 76 -28 11 -36 11 -61 -2 -44 -22 -69 -60 -82 -123 -19 -96 -39 -142 -95 -226 -30 -45 -54 -90 -54 -102 0 -12 10 -33 21 -48 17 -22 28 -27 58 -24 33 3 38 8 65 61 33 66 44 64 73 -11 24 -62 24 -175 0 -220 -19 -35 -33 -34 -47 3 -5 13 -21 32 -35 41 -25 16 -27 16 -53 -3 -39 -29 -40 -70 -4 -135 17 -29 46 -105 66 -169 56 -181 127 -271 262 -331 231 -102 540 -61 694 93 62 62 92 121 131 253 17 55 44 125 60 153 37 67 38 105 3 132 -15 12 -31 21 -36 21 -10 0 -44 -35 -70 -71 l-16 -24 -21 45 c-36 78 -20 220 28 264 17 16 20 13 47 -41 27 -53 32 -58 65 -61 30 -3 41 2 58 24 30 38 26 61 -20 129 -62 92 -85 143 -104 227 -18 84 -40 120 -86 143 -25 13 -33 13 -61 2 -40 -17 -65 -44 -70 -76 -3 -21 -8 -17 -50 37 -25 33 -73 82 -106 109 -33 26 -63 54 -66 61 -9 21 12 51 39 58 20 5 36 -4 89 -52 63 -58 172 -131 181 -122 3 3 -30 28 -72 56 -43 28 -96 69 -118 91 -44 47 -83 53 -115 21 -22 -22 -25 -42 -10 -70 9 -17 4 -20 -44 -31 -42 -9 -65 -9 -105 1 -45 10 -50 14 -41 30 15 28 12 48 -10 70 -31 31 -71 26 -111 -16z m211 -104 c26 0 66 7 89 15 l41 14 73 -72 c41 -40 92 -100 115 -133 43 -65 56 -74 102 -74 36 0 60 24 60 59 0 34 -14 52 -65 81 -40 24 -40 24 -21 2 18 -20 18 -24 5 -38 -14 -13 -17 -13 -32 4 -23 25 -13 49 27 62 72 23 109 -15 141 -146 17 -67 36 -115 60 -151 l35 -53 -38 0 c-54 0 -114 -45 -137 -101 -26 -64 -24 -172 3 -225 26 -52 76 -94 109 -94 20 0 24 -3 18 -17 -17 -40 -45 -122 -65 -190 -42 -148 -146 -253 -300 -304 -65 -21 -93 -24 -215 -24 -122 0 -150 3 -215 24 -154 51 -258 156 -300 304 -20 68 -48 150 -65 190 -6 14 -2 17 19 17 36 0 91 52 112 105 22 60 16 174 -14 231 -26 50 -76 84 -126 84 l-36 0 35 53 c24 36 43 84 60 151 32 131 69 169 141 146 40 -13 50 -37 27 -62 -15 -17 -18 -17 -32 -4 -13 14 -13 18 5 37 20 24 16 22 -48 -18 -32 -19 -38 -29 -38 -57 0 -44 22 -66 66 -66 40 0 57 15 124 109 25 35 71 88 104 117 l59 53 34 -14 c20 -8 57 -15 83 -15z m-392 -172 l3 -27 29 32 29 32 1 -28 c0 -32 -39 -77 -67 -77 -25 0 -63 28 -63 46 0 55 62 74 68 22z m794 0 c4 39 49 38 63 -2 8 -24 6 -31 -14 -47 -13 -10 -32 -19 -43 -19 -29 0 -68 45 -68 77 l1 28 29 -32 29 -32 3 27z m-991 -302 c-27 -42 -26 -44 4 -38 21 4 25 1 25 -20 0 -30 -17 -48 -45 -48 -29 0 -57 33 -57 67 0 31 42 73 73 73 21 0 21 0 0 -34z m69 6 c0 -4 -7 -16 -15 -26 -12 -15 -17 -17 -29 -7 -23 19 0 64 25 50 11 -5 19 -13 19 -17z m1098 -29 c-15 -18 -21 -16 -37 9 -12 19 -11 23 5 35 16 12 20 10 30 -9 9 -16 9 -27 2 -35z m68 34 c31 -27 35 -68 9 -97 -34 -37 -85 -20 -85 28 0 21 4 24 25 20 30 -6 30 -8 4 36 l-21 36 20 0 c12 0 33 -10 48 -23z m-1188 -269 c7 -7 12 -21 12 -31 0 -16 -5 -18 -29 -14 l-30 6 21 -34 c23 -40 13 -45 -26 -14 -30 23 -33 54 -9 81 19 21 44 23 61 6z m1154 -5 c26 -23 22 -58 -8 -82 -39 -31 -49 -26 -25 14 l20 35 -24 -6 c-29 -7 -44 18 -25 41 16 20 39 19 62 -2z m-1116 -54 c10 -17 -23 -46 -38 -31 -8 8 -8 15 2 27 15 18 26 19 36 4z m1053 2 c14 -9 9 -41 -7 -41 -15 0 -34 28 -27 40 8 12 16 13 34 1z"/> <path d="M880 1525 l0 -95 53 0 c35 0 47 3 37 9 -8 6 -27 7 -42 4 l-28 -5 0 81 0 81 175 0 c149 0 175 -2 175 -15 0 -8 5 -15 10 -15 6 0 10 11 10 25 l0 25 -195 0 -195 0 0 -95z"/> <path d="M984 1554 c3 -9 6 -36 6 -60 l0 -44 130 0 130 0 0 60 0 60 -136 0 c-120 0 -135 -2 -130 -16z m219 -36 c10 -31 -5 -38 -83 -38 -79 0 -97 8 -86 35 7 20 162 22 169 3z"/> <path d="M1270 1494 l0 -77 -140 5 c-111 3 -140 2 -141 -9 -1 -7 -2 -18 -3 -23 -1 -7 65 -12 192 -13 l192 -2 0 98 0 97 -50 0 -50 0 0 -76z m58 -21 c-4 -66 -28 -70 -28 -4 0 39 4 51 16 51 12 0 14 -10 12 -47z"/> <path d="M795 1300 c-3 -6 -17 -7 -31 -4 -14 4 -24 2 -24 -5 0 -6 5 -11 11 -11 5 0 7 -5 4 -10 -3 -6 5 -14 19 -20 35 -13 33 -24 -4 -16 -17 3 -30 1 -30 -4 0 -6 4 -10 10 -10 5 0 7 -7 3 -16 -8 -21 13 -34 55 -34 42 0 75 17 68 36 -3 8 -1 14 5 14 6 0 8 4 5 9 -3 4 -17 6 -31 3 -15 -2 -25 0 -25 7 0 6 9 11 20 11 11 0 20 4 20 9 0 5 3 17 6 26 5 13 2 15 -19 10 -14 -4 -28 -2 -31 4 -9 14 -23 14 -31 1z m49 -29 c7 -11 -31 -22 -50 -14 -8 3 -14 9 -14 14 0 12 57 12 64 0z m3 -67 c5 -15 -40 -23 -61 -12 -9 5 -14 14 -10 19 8 13 66 7 71 -7z"/> <path d="M1240 1299 c0 -6 -6 -9 -14 -6 -10 4 -14 -1 -12 -17 4 -34 15 -46 46 -46 27 0 46 22 34 41 -3 5 0 9 6 9 6 0 9 4 5 10 -3 5 -12 7 -20 3 -8 -3 -15 0 -15 6 0 6 -7 11 -15 11 -8 0 -15 -5 -15 -11z m30 -39 c0 -11 -7 -20 -15 -20 -8 0 -15 9 -15 20 0 11 7 20 15 20 8 0 15 -9 15 -20z"/> <path d="M903 1284 c-9 -25 11 -49 42 -49 35 0 54 27 36 49 -18 21 -70 21 -78 0z m53 -9 c3 -8 3 -19 -1 -25 -10 -16 -35 7 -28 26 7 18 22 18 29 -1z"/> <path d="M1010 1265 c0 -19 5 -35 10 -35 6 0 10 9 10 19 0 11 3 26 6 35 4 11 1 16 -10 16 -12 0 -16 -10 -16 -35z"/> <path d="M1060 1240 c0 -60 0 -60 29 -60 16 0 36 -3 45 -6 13 -5 16 1 16 30 0 20 5 36 10 36 6 0 10 -16 10 -35 0 -19 5 -35 10 -35 6 0 10 28 10 65 0 37 -4 65 -10 65 -5 0 -10 -12 -10 -26 0 -15 -4 -23 -11 -18 -6 3 -9 15 -6 25 3 12 0 19 -9 19 -10 0 -14 -14 -14 -50 0 -47 -2 -50 -25 -50 -22 0 -25 4 -25 40 0 33 3 40 20 40 11 0 20 5 20 10 0 6 -13 10 -30 10 -30 0 -30 0 -30 -60z"/> <path d="M1320 1265 c0 -37 6 -41 30 -24 11 8 12 12 3 16 -7 2 -13 13 -13 24 0 10 -4 19 -10 19 -5 0 -10 -16 -10 -35z"/> <path d="M1370 1290 c0 -5 23 -10 50 -10 l50 0 0 -45 c0 -25 -4 -45 -10 -45 -5 0 -10 16 -10 35 0 19 -4 35 -10 35 -5 0 -10 -16 -10 -35 0 -19 -4 -35 -10 -35 -5 0 -10 16 -10 35 0 19 -4 35 -10 35 -5 0 -10 -16 -10 -35 0 -24 -5 -35 -15 -35 -8 0 -15 -4 -15 -10 0 -6 32 -10 76 -10 65 0 75 2 70 16 -3 9 -6 38 -6 65 l0 49 -65 0 c-37 0 -65 -4 -65 -10z"/> <path d="M910 1210 c0 -5 23 -10 50 -10 38 0 50 -4 50 -15 0 -8 7 -15 16 -15 11 0 14 5 10 16 -3 9 -6 20 -6 25 0 5 -27 9 -60 9 -33 0 -60 -4 -60 -10z"/> <path d="M1220 1211 c0 -6 22 -11 50 -11 38 0 50 -4 50 -15 0 -8 5 -15 10 -15 6 0 10 11 10 23 0 22 -4 24 -60 26 -37 1 -60 -2 -60 -8z"/> <path d="M830 1065 c-9 -11 -13 -64 -13 -183 l-1 -167 -5 158 -6 158 -33 -34 -32 -33 2 -170 3 -169 150 -8 c177 -9 259 -9 458 -2 l147 6 0 177 -1 177 -49 53 -49 52 -123 0 c-85 0 -128 -4 -136 -12 -10 -10 -17 -10 -32 0 -31 19 -264 17 -280 -3z m271 -5 c18 -10 19 -23 19 -171 0 -155 -1 -159 -19 -149 -11 5 -69 10 -130 10 l-111 0 0 160 0 160 111 0 c61 0 119 -5 130 -10z m289 -150 l0 -160 -111 0 c-61 0 -119 -5 -130 -10 -18 -10 -19 -6 -19 148 0 109 4 162 12 170 8 8 52 12 130 12 l118 0 0 -160z m-542 -71 l-3 -106 124 -2 c71 -1 131 -7 141 -13 14 -9 22 -9 32 -1 14 12 243 21 255 10 3 -4 -43 -7 -103 -7 -80 -1 -114 -5 -128 -15 -25 -19 -56 -19 -82 0 -15 10 -55 15 -135 17 l-114 3 -3 155 c-1 85 1 161 5 170 10 20 15 -76 11 -211z m574 53 l2 -157 6 150 6 150 0 -170 -1 -170 -122 -3 c-92 -2 -124 -6 -133 -17 -17 -20 -94 -20 -110 0 -10 12 -38 15 -132 15 -77 0 -117 4 -113 10 4 6 56 10 124 10 93 0 121 -3 131 -15 16 -20 74 -19 90 1 11 12 35 15 137 12 68 -2 123 0 123 3 0 4 -7 12 -15 19 -12 10 -15 42 -15 172 0 104 3 157 10 153 6 -4 11 -72 12 -163z m48 -59 c0 -96 -4 -153 -10 -153 -6 0 -10 62 -10 168 0 111 4 162 10 152 5 -8 10 -84 10 -167z m-672 5 l-3 -163 131 3 c108 3 133 0 144 -12 17 -21 93 -21 110 -1 10 12 39 15 141 15 74 0 130 -4 134 -10 4 -6 -40 -10 -124 -10 -76 0 -132 -4 -136 -10 -8 -13 -128 -13 -141 0 -5 5 -68 11 -139 12 l-130 3 -3 168 c-2 116 1 167 8 167 8 0 10 -50 8 -162z m105 -188 c102 0 138 -3 153 -15 25 -19 113 -19 138 0 15 12 51 15 153 15 l133 0 3 158 3 157 -1 -160 0 -160 -132 -3 c-101 -2 -134 -6 -143 -17 -18 -21 -153 -21 -170 0 -10 12 -38 15 -135 15 -68 0 -129 2 -137 5 -10 4 -12 39 -8 173 l5 167 3 -167 2 -168 133 0z"/> <path d="M977 1034 c-4 -4 -7 -17 -7 -29 0 -12 -9 -34 -20 -48 -22 -28 -25 -37 -10 -37 6 0 19 14 29 31 18 29 19 30 26 10 3 -12 15 -26 26 -31 24 -14 24 -2 0 24 -11 12 -23 36 -28 54 -5 18 -12 30 -16 26z"/> <path d="M930 834 c0 -30 5 -54 10 -54 6 0 10 16 10 35 0 24 5 35 15 35 8 0 15 8 15 19 0 13 -7 19 -25 19 -24 0 -25 -4 -25 -54z"/> <path d="M990 869 c0 -11 7 -19 15 -19 10 0 15 -9 14 -27 -2 -24 -2 -25 -6 -5 -7 33 -53 31 -53 -3 0 -14 5 -25 11 -25 6 0 9 9 6 20 -3 13 0 20 9 20 7 0 11 -6 8 -13 -6 -17 21 -41 36 -32 5 3 10 28 10 54 0 45 -2 49 -25 49 -18 0 -25 -6 -25 -19z"/> <path d="M1223 1023 c21 -6 22 -19 2 -27 -8 -3 -15 -13 -15 -22 0 -10 5 -14 15 -10 9 3 15 0 15 -9 0 -8 -4 -15 -10 -15 -5 0 -10 -4 -10 -8 0 -4 24 -8 53 -8 50 1 53 2 49 24 -6 29 -22 39 -22 13 0 -12 -5 -21 -11 -21 -10 0 -8 20 7 73 3 9 1 17 -4 17 -5 0 -13 -20 -16 -45 -4 -25 -11 -45 -16 -45 -4 0 -6 9 -3 19 3 13 -1 21 -14 24 -16 4 -16 5 0 6 10 1 17 9 17 21 0 15 -6 20 -27 19 -17 -1 -21 -3 -10 -6z"/> <path d="M1229 881 l-23 -18 57 0 c56 0 57 0 41 18 -9 11 -25 19 -34 19 -10 0 -28 -8 -41 -19z"/> <path d="M1221 836 c-9 -11 -9 -15 1 -19 10 -4 10 -8 -2 -16 -11 -8 0 -11 45 -11 45 0 56 3 45 11 -12 8 -12 12 -2 16 23 9 -8 33 -43 33 -18 0 -38 -6 -44 -14z m69 -18 c0 -19 -2 -20 -10 -8 -9 13 -10 13 -10 0 0 -12 -2 -13 -9 -1 -7 11 -9 11 -14 0 -3 -8 -6 -4 -6 9 -1 17 5 22 24 22 19 0 25 -5 25 -22z"/> <path d="M977 526 c-15 -12 -15 -14 -2 -19 10 -5 13 -15 9 -37 -4 -19 -2 -30 5 -30 7 0 11 20 11 50 0 28 -1 50 -2 50 -2 0 -11 -7 -21 -14z"/> <path d="M1042 528 c-7 -7 -12 -18 -12 -25 0 -16 31 -32 50 -25 13 5 13 3 1 -11 -11 -13 -17 -15 -28 -6 -7 7 -16 10 -18 7 -3 -3 2 -11 11 -18 21 -19 48 -1 52 34 6 45 -29 71 -56 44z"/> <path d="M1157 534 c-4 -4 -4 -18 -1 -30 4 -14 2 -24 -5 -24 -6 0 -8 8 -5 18 5 14 3 14 -10 -2 -21 -26 -20 -36 4 -36 11 0 20 -4 20 -10 0 -5 4 -10 9 -10 12 0 24 34 13 38 -5 1 -6 16 -4 32 4 28 -6 39 -21 24z"/> <path d="M1222 528 c-24 -24 -11 -88 18 -88 23 0 42 24 34 44 -6 16 -17 20 -43 16 -13 -1 -13 1 -1 15 9 11 16 13 24 5 16 -16 30 -12 16 5 -15 18 -32 19 -48 3z m38 -51 c0 -8 -3 -17 -7 -20 -9 -9 -34 13 -27 24 8 14 34 11 34 -4z"/> <path d="M365 1870 c-6 -10 61 -79 78 -80 4 0 7 -4 7 -8 0 -5 -34 -3 -75 3 -103 17 -108 5 -27 -66 46 -39 70 -55 77 -48 7 7 -6 24 -39 53 l-49 43 76 -12 c102 -16 110 -5 45 54 -72 64 -85 73 -93 61z"/> <path d="M1866 1814 c-19 -19 -20 -41 -2 -73 17 -30 10 -51 -15 -51 -26 0 -43 34 -29 59 12 23 -5 40 -22 23 -31 -31 11 -112 58 -112 44 0 52 35 28 118 -5 18 -2 22 14 22 27 0 44 -29 31 -52 -10 -18 4 -34 21 -23 18 11 11 61 -13 83 -28 26 -50 28 -71 6z"/> <path d="M1945 1664 c-38 -25 -71 -51 -73 -59 -5 -22 4 -19 83 31 48 30 72 51 68 60 -3 8 -6 14 -7 14 0 0 -32 -21 -71 -46z"/> <path d="M220 1675 c-34 -37 -33 -90 4 -121 89 -77 205 39 118 118 -42 37 -89 38 -122 3z m105 -30 c30 -29 31 -49 5 -75 -24 -24 -32 -25 -69 -5 -43 21 -54 61 -25 89 23 23 61 19 89 -9z"/> <path d="M2035 1640 c-3 -5 -1 -19 5 -30 10 -19 5 -23 -59 -54 -47 -22 -67 -37 -62 -45 6 -9 26 -4 75 21 68 33 75 33 89 -6 2 -5 8 -6 15 -2 8 5 3 24 -18 67 -32 62 -35 65 -45 49z"/> <path d="M137 1524 c-14 -15 -6 -23 28 -30 39 -7 39 -5 24 -56 l-10 -38 -36 15 c-44 19 -45 19 -41 -2 2 -10 32 -26 86 -44 72 -24 83 -26 80 -11 -2 9 -18 21 -36 26 -22 6 -31 14 -27 24 3 7 8 25 11 39 6 21 10 23 33 18 40 -11 54 -11 58 0 2 6 -29 22 -69 35 -96 32 -93 32 -101 24z"/> <path d="M2075 1470 c-28 -34 -50 -51 -72 -56 -23 -4 -33 -12 -33 -25 0 -16 3 -17 37 -5 32 11 46 10 96 -5 53 -16 58 -16 55 -1 -2 10 -19 20 -43 25 -22 6 -42 11 -44 13 -3 3 8 17 23 33 17 17 26 37 24 50 -3 17 -9 13 -43 -29z"/> <path d="M143 1293 c-15 -5 -17 -39 -4 -47 14 -9 41 4 41 19 0 17 -22 33 -37 28z"/> <path d="M2070 1285 c-11 -13 -11 -19 3 -33 20 -19 41 -5 35 24 -4 24 -22 28 -38 9z"/> <path d="M2048 1170 c-9 -6 -22 -26 -28 -44 -9 -28 -8 -40 4 -64 18 -34 33 -42 85 -42 51 0 81 29 81 79 0 51 -32 81 -86 81 -21 0 -47 -5 -56 -10z m106 -36 c46 -45 -21 -111 -82 -82 -30 15 -42 60 -21 84 15 19 84 18 103 -2z"/> <path d="M60 1155 c0 -10 11 -15 35 -15 33 0 35 -2 35 -33 0 -40 15 -57 50 -57 38 0 50 18 50 72 l0 48 -85 0 c-69 0 -85 -3 -85 -15z m150 -39 c0 -13 -7 -29 -15 -36 -20 -17 -45 3 -45 36 0 20 5 24 30 24 25 0 30 -4 30 -24z"/> <path d="M147 1011 c-52 -9 -86 -19 -84 -25 2 -6 21 -10 41 -9 25 2 36 -2 36 -11 0 -8 3 -21 6 -30 4 -11 -5 -21 -30 -33 -20 -9 -36 -19 -36 -22 0 -12 20 -36 20 -24 0 15 56 36 99 37 45 1 56 21 45 82 l-9 49 -88 -14z m76 -48 c7 -37 -16 -64 -37 -43 -7 8 -16 27 -20 43 -6 25 -4 27 23 27 23 0 30 -5 34 -27z"/> <path d="M2005 990 c-10 -17 -4 -20 66 -30 35 -6 74 -12 87 -15 15 -4 22 -1 22 9 0 14 -15 19 -95 32 -22 3 -47 8 -57 10 -9 3 -19 0 -23 -6z"/> <path d="M2033 933 c-53 -10 -71 -93 -29 -132 60 -56 150 -24 150 54 0 25 -6 42 -19 51 -25 18 -41 -3 -19 -27 18 -20 18 -44 -2 -63 -22 -23 -59 -20 -90 7 -32 28 -26 63 12 77 13 5 24 16 24 25 0 8 -1 14 -2 14 -2 -1 -13 -4 -25 -6z"/> <path d="M173 845 c-40 -17 -57 -48 -49 -91 13 -65 98 -87 150 -39 41 38 30 111 -21 134 -30 14 -41 13 -80 -4z m79 -27 c55 -42 -11 -125 -73 -94 -16 8 -25 22 -27 43 -3 26 2 34 25 47 35 19 54 20 75 4z"/> <path d="M1940 767 c0 -19 150 -81 163 -68 13 13 17 11 -75 49 -89 37 -88 36 -88 19z"/> <path d="M1898 682 l-27 -48 70 -42 c74 -44 84 -48 94 -32 3 5 -9 17 -27 26 -18 9 -34 18 -36 19 -2 1 7 18 18 38 14 24 17 37 10 42 -13 8 -13 9 -34 -33 -14 -28 -20 -31 -36 -22 -24 13 -24 12 -1 52 19 29 19 48 3 48 -4 0 -19 -22 -34 -48z"/> <path d="M300 598 c-79 -60 -73 -54 -65 -68 5 -7 18 -3 39 14 l33 25 22 -29 c27 -38 27 -41 -8 -65 -22 -14 -27 -23 -20 -32 8 -9 27 0 77 39 37 29 69 53 71 55 3 2 0 8 -5 13 -7 7 -19 4 -36 -10 -15 -11 -29 -20 -31 -20 -3 0 -16 14 -28 31 l-22 31 29 23 c19 16 26 27 19 33 -7 7 -33 -7 -75 -40z"/> <path d="M1816 564 c-36 -43 -37 -46 -20 -59 11 -7 42 -31 69 -54 l50 -42 42 48 c28 32 39 51 32 58 -7 7 -21 -4 -44 -30 -31 -37 -35 -39 -51 -23 -15 15 -15 18 10 51 35 46 16 58 -23 15 -27 -30 -31 -31 -45 -18 -14 14 -13 19 14 51 26 32 30 49 10 49 -3 0 -23 -21 -44 -46z"/> <path d="M1751 487 c-8 -8 0 -22 31 -54 23 -24 39 -43 34 -43 -4 0 -35 7 -68 16 -82 21 -98 14 -63 -29 74 -87 86 -99 102 -93 13 6 9 15 -25 49 -23 24 -42 46 -42 49 0 4 32 -3 71 -14 39 -11 75 -16 80 -11 4 4 -18 38 -50 75 -44 49 -62 63 -70 55z"/> <path d="M435 478 c-55 -30 -72 -96 -35 -136 45 -48 106 -37 143 26 17 28 17 37 7 63 -22 52 -70 72 -115 47z m77 -35 c25 -22 23 -49 -7 -78 -61 -62 -133 8 -73 72 25 27 54 29 80 6z"/> <path d="M569 342 c-17 -31 -38 -67 -46 -78 -12 -19 -12 -22 0 -27 10 -4 24 11 42 44 15 28 28 49 30 47 1 -2 -2 -29 -8 -60 -6 -32 -7 -61 -4 -65 4 -3 24 7 45 23 20 17 43 34 51 39 15 9 15 9 -25 -57 -19 -29 -20 -37 -9 -42 9 -3 28 20 58 72 37 63 42 79 30 85 -10 6 -31 -6 -70 -39 l-56 -48 7 44 c3 25 9 59 12 76 4 22 1 33 -10 37 -10 4 -24 -11 -47 -51z"/> <path d="M1591 365 c-19 -14 -39 -26 -45 -28 -5 -2 12 -38 38 -79 l47 -76 50 30 c27 17 49 37 49 44 0 19 -5 18 -51 -13 -34 -22 -42 -24 -50 -12 -16 25 -10 39 26 56 19 9 35 20 35 24 0 19 -23 19 -49 0 -35 -25 -47 -26 -55 -5 -9 22 -10 21 34 45 21 12 37 26 34 31 -8 13 -27 8 -63 -17z"/> <path d="M1442 292 c-23 -9 -41 -19 -40 -22 2 -3 16 -39 32 -80 17 -41 31 -76 32 -78 1 -2 24 7 50 20 42 20 49 28 52 55 2 24 -2 34 -17 42 -12 7 -18 17 -14 27 6 16 -23 54 -41 53 -6 0 -30 -8 -54 -17z m66 -33 c4 -21 -48 -45 -59 -27 -14 21 -10 36 9 41 28 8 47 3 50 -14z m32 -58 c8 -16 6 -23 -12 -35 -31 -22 -43 -20 -56 8 -10 22 -8 26 16 35 38 14 40 13 52 -8z"/> <path d="M744 228 c-32 -81 -34 -90 -18 -95 9 -3 31 45 70 150 4 11 1 17 -8 17 -9 0 -27 -29 -44 -72z"/> <path d="M821 243 c-5 -21 -15 -57 -21 -81 -6 -23 -8 -47 -5 -52 11 -18 25 -11 26 13 0 12 6 40 13 62 l12 40 24 -70 c23 -71 40 -94 51 -72 12 22 41 158 36 163 -12 13 -24 -8 -37 -63 l-13 -58 -26 74 c-14 41 -31 76 -38 78 -7 3 -16 -12 -22 -34z"/> <path d="M1270 193 c-19 -88 -23 -90 -55 -23 -20 42 -34 60 -48 60 -17 0 -18 -5 -13 -52 14 -114 17 -127 30 -122 10 4 11 18 5 56 -5 29 -7 54 -4 56 2 2 16 -21 32 -52 15 -31 32 -55 37 -53 5 2 15 27 22 55 14 64 24 77 24 31 0 -50 10 -79 27 -79 9 0 12 6 9 18 -3 9 -8 50 -12 90 -5 59 -10 72 -24 72 -12 0 -20 -15 -30 -57z"/> <path d="M986 194 c-10 -75 -7 -100 12 -117 20 -18 68 -22 90 -9 30 20 46 162 17 162 -11 0 -15 -12 -15 -47 0 -87 -19 -115 -62 -92 -18 10 -20 18 -16 80 4 51 2 69 -7 69 -7 0 -15 -20 -19 -46z"/> </g> </svg> 